<svg width="51" height="51" viewBox="0 0 51 51" fill="none" xmlns="http://www.w3.org/2000/svg">
<path d="M18.5287 44.0289C24.9496 42.0109 26.7841 42.1944 32.2877 44.0289M25.8669 17.2447L23.2985 22.0145L28.0683 22.198L25.8669 27.7015M19.0791 37.9749C17.8366 37.6298 19.9964 34.6728 17.428 33.0217C14.8597 31.3706 11.1906 27.7382 11.1906 21.2807C11.1906 13.2087 17.6115 7.15479 25.5 7.15479C33.3885 7.15479 40.7266 13.3922 40.1762 21.2807C39.7359 27.5915 36.5683 31.3095 34.1223 33.0217C31.6762 34.7339 33.5229 37.6044 32.2877 37.9749C30.4532 38.5253 22.3813 38.8922 19.0791 37.9749Z" stroke="#1D84B5" stroke-width="3" stroke-linecap="round" stroke-linejoin="round"/>
<circle cx="25.5" cy="25.5" r="24" stroke="#1D84B5" stroke-width="3"/>
</svg>
